<?xml version="1.0" encoding="UTF-8" standalone="no"?>
<!-- Uploaded to: SVG Repo, www.svgrepo.com, Generator: SVG Repo Mixer Tools -->

<svg
   width="800px"
   height="800px"
   viewBox="0 0 400 400"
   fill="none"
   version="1.1"
   id="svg16"
   sodipodi:docname="logo.svg"
   inkscape:version="1.2.2 (b0a8486541, 2022-12-01)"
   xmlns:inkscape="http://www.inkscape.org/namespaces/inkscape"
   xmlns:sodipodi="http://sodipodi.sourceforge.net/DTD/sodipodi-0.dtd"
   xmlns="http://www.w3.org/2000/svg"
   xmlns:svg="http://www.w3.org/2000/svg">
  <defs
     id="defs20" />
  <sodipodi:namedview
     id="namedview18"
     pagecolor="#ffffff"
     bordercolor="#000000"
     borderopacity="0.25"
     inkscape:showpageshadow="2"
     inkscape:pageopacity="0.0"
     inkscape:pagecheckerboard="0"
     inkscape:deskcolor="#d1d1d1"
     showgrid="false"
     inkscape:zoom="0.59"
     inkscape:cx="511.01695"
     inkscape:cy="285.59322"
     inkscape:window-width="1862"
     inkscape:window-height="1131"
     inkscape:window-x="58"
     inkscape:window-y="32"
     inkscape:window-maximized="1"
     inkscape:current-layer="svg16" />
  <path
     d="M193.34 155.547C165.458 140.752 159.218 144.274 150.255 170.345C148.884 174.339 143.741 183.364 144.869 187.751C146.62 194.543 179.459 210.48 184.365 202.549C192.123 190.01 194.603 173.987 201.418 160.769"
     stroke="#000000"
     stroke-opacity="0.9"
     stroke-width="16"
     stroke-linecap="round"
     stroke-linejoin="round"
     id="path2" />
  <path
     d="M167.819 175.018C162.726 175.018 124.403 174.16 123.791 172.279C123.144 170.286 148.252 102.381 155.321 114.118C160.728 123.096 169.035 161.733 171.997 175.778"
     stroke="#000000"
     stroke-opacity="0.9"
     stroke-width="16"
     stroke-linecap="round"
     stroke-linejoin="round"
     id="path4" />
  <path
     d="M180.75 98.4755C187.138 90.1945 199.169 88.3968 206.966 96.6778C214.881 105.084 216.219 120.528 209.416 129.554C202.218 139.104 186.379 141.883 177.368 137.097C159.958 127.853 172.487 95.7809 190.054 95.7809"
     stroke="#000000"
     stroke-opacity="0.9"
     stroke-width="16"
     stroke-linecap="round"
     stroke-linejoin="round"
     id="path6" />
  <path
     opacity="0.503384"
     d="M248.04 118.78C243.123 127.051 221.93 120.356 226.494 138.109C230.187 152.459 245.119 162.043 230.4 188.277C213.974 217.548 181.897 230.682 150.544 218.962C115.47 205.851 101.549 184.99 112.476 146.761C118.103 127.074 130.305 96.1281 150.544 86.292C158.837 82.2597 169.511 77.2174 178.4 74.5564C195.405 69.4713 233.943 71.432 243.661 88.3999C248.04 96.0461 250.826 106.477 250.826 112.463"
     stroke="#000000"
     stroke-opacity="0.9"
     stroke-width="16"
     stroke-linecap="round"
     stroke-linejoin="round"
     id="path8" />
  <path
     d="M271.083 85.5066C280.279 101.643 278.528 117.107 287.073 134.114C291.512 142.943 317.245 169.72 310.967 182.212C304.681 194.719 280.264 184.194 278.191 192.441C277.029 197.063 285.158 206.766 286.186 211.882C291.053 236.09 282.309 228.433 279.078 234.862C278.214 236.581 284.381 237.486 285.299 238.395C288.335 241.419 287.073 247.764 287.073 251.652C287.073 281.383 216.817 254.223 226.67 264.026"
     stroke="#000000"
     stroke-opacity="0.9"
     stroke-width="16"
     stroke-linecap="round"
     stroke-linejoin="round"
     id="path10" />
  <path
     d="M225.723 263.484C225.723 269.329 224.565 286.999 224.565 292.844C224.565 314.518 225.175 339.924 243.621 355.961"
     stroke="#000000"
     stroke-opacity="0.9"
     stroke-width="16"
     stroke-linecap="round"
     stroke-linejoin="round"
     id="path12" />
  <path
     d="M251.184 66.899C200.859 18.1636 124.954 58.5473 98.2507 112.148C85.816 137.107 86.3487 169.777 91.1772 196.432C93.4069 208.733 98.8595 227.807 106.207 238.133C115.251 250.842 125.654 264.452 138.032 272.735C139.957 274.022 139.287 284.681 138.914 286.93C136.373 302.232 134.497 322.414 126.537 335.726C125.487 337.483 121.417 344.228 114.329 355.961"
     stroke="#000000"
     stroke-opacity="0.9"
     stroke-width="16"
     stroke-linecap="round"
     stroke-linejoin="round"
     id="path14" />
  <path
     style="fill:#a0892c;stroke-width:1.69492"
     d="m 222.0339,725.07149 c -11.38588,-6.52979 -10.44131,-14.17496 4.85655,-39.30783 21.60248,-35.49069 24.1791,-42.6009 31.69362,-87.45857 7.06373,-42.16668 7.13826,-41.41828 -5.13142,-51.52704 -19.28913,-15.89196 -51.30694,-56.13176 -62.57834,-78.64807 -27.19986,-54.33583 -37.2592,-140.87088 -23.67446,-203.65854 9.25033,-42.75433 29.21878,-77.09491 66.63039,-114.5871 23.70464,-23.75569 42.36358,-37.49876 69.23506,-50.994428 28.96221,-14.54569 66.28543,-24.276312 93.22021,-24.303649 20.68619,-0.02099 48.19103,6.098165 68.12127,15.155333 22.2712,10.121004 50.63117,32.065204 52.51302,40.633204 2.2094,10.05937 -8.57339,20.8483 -17.88327,17.89346 -2.06567,-0.65561 -9.02922,-5.61982 -15.47458,-11.03158 -14.30641,-12.01217 -33.50275,-22.2217 -51.45448,-27.36593 -11.12976,-3.18933 -17.42949,-3.84281 -36.34476,-3.77007 -24.87696,0.0957 -35.01508,1.93696 -59.54776,10.81514 -62.98327,22.79311 -122.61434,85.97758 -137.80405,146.01574 -13.44918,53.15863 -6.99038,130.39975 15.35575,183.64 10.19231,24.28346 40.23126,62.08212 67.11471,84.4519 15.19901,12.64712 16.16298,22.16369 7.41609,73.21383 -7.70109,44.94649 -11.93869,56.97705 -31.81571,90.3248 -18.97658,31.83708 -24.14739,36.41671 -34.44784,30.5094 z"
     id="path1564"
     transform="scale(0.5)" />
</svg>
