<?xml version="1.0" encoding="UTF-8" standalone="no"?>
<!DOCTYPE svg PUBLIC "-//W3C//DTD SVG 1.1//EN"
 "http://www.w3.org/Graphics/SVG/1.1/DTD/svg11.dtd">
<!-- Generated by graphviz version 2.43.0 (0)
 -->
<!-- Title: CogitatorWorkflow Pages: 1 -->
<svg width="1532pt" height="474pt"
 viewBox="0.00 0.00 1532.00 474.25" xmlns="http://www.w3.org/2000/svg" xmlns:xlink="http://www.w3.org/1999/xlink">
<g id="graph0" class="graph" transform="scale(1 1) rotate(0) translate(4 470.25)">
<title>CogitatorWorkflow</title>
<polygon fill="white" stroke="transparent" points="-4,4 -4,-470.25 1528,-470.25 1528,4 -4,4"/>
<g id="clust1" class="cluster">
<title>cluster_input</title>
<polygon fill="none" stroke="lightgrey" stroke-dasharray="5,2" points="727,-381.25 727,-458.25 1490,-458.25 1490,-381.25 727,-381.25"/>
<text text-anchor="middle" x="1108.5" y="-443.05" font-family="Helvetica,Arial,sans-serif" font-size="14.00">Inputs</text>
</g>
<g id="clust2" class="cluster">
<title>cluster_core</title>
<polygon fill="none" stroke="lightgrey" stroke-dasharray="5,2" points="466,-15.12 466,-333.25 1435,-333.25 1435,-15.12 466,-15.12"/>
<text text-anchor="middle" x="950.5" y="-318.05" font-family="Helvetica,Arial,sans-serif" font-size="14.00">Cogitator Library</text>
</g>
<g id="clust3" class="cluster">
<title>cluster_external</title>
<polygon fill="none" stroke="lightgrey" stroke-dasharray="5,2" points="8,-8 8,-99.25 458,-99.25 458,-8 8,-8"/>
<text text-anchor="middle" x="233" y="-84.05" font-family="Helvetica,Arial,sans-serif" font-size="14.00">External Services / Models</text>
</g>
<g id="clust4" class="cluster">
<title>cluster_output</title>
<polygon fill="none" stroke="lightgrey" stroke-dasharray="5,2" points="298,-133.25 298,-208.25 458,-208.25 458,-133.25 298,-133.25"/>
<text text-anchor="middle" x="378" y="-193.05" font-family="Helvetica,Arial,sans-serif" font-size="14.00">Output</text>
</g>
<!-- question -->
<g id="node1" class="node">
<title>question</title>
<path fill="lightyellow" stroke="grey" stroke-width="2" d="M850.5,-426.25C850.5,-426.25 747.5,-426.25 747.5,-426.25 741.5,-426.25 735.5,-420.25 735.5,-414.25 735.5,-414.25 735.5,-402.25 735.5,-402.25 735.5,-396.25 741.5,-390.25 747.5,-390.25 747.5,-390.25 850.5,-390.25 850.5,-390.25 856.5,-390.25 862.5,-396.25 862.5,-402.25 862.5,-402.25 862.5,-414.25 862.5,-414.25 862.5,-420.25 856.5,-426.25 850.5,-426.25"/>
<text text-anchor="middle" x="799" y="-404.55" font-family="Helvetica,Arial,sans-serif" font-size="14.00">Question / Prompt</text>
</g>
<!-- strategy -->
<g id="node5" class="node">
<title>strategy</title>
<path fill="lightblue" stroke="grey" stroke-width="2" d="M983,-302.25C983,-302.25 845,-302.25 845,-302.25 839,-302.25 833,-296.25 833,-290.25 833,-290.25 833,-276.25 833,-276.25 833,-270.25 839,-264.25 845,-264.25 845,-264.25 983,-264.25 983,-264.25 989,-264.25 995,-270.25 995,-276.25 995,-276.25 995,-290.25 995,-290.25 995,-296.25 989,-302.25 983,-302.25"/>
<text text-anchor="middle" x="914" y="-287.05" font-family="Helvetica,Arial,sans-serif" font-size="14.00">Selected CoT Strategy</text>
<text text-anchor="middle" x="914" y="-272.05" font-family="Helvetica,Arial,sans-serif" font-size="14.00">(e.g., AutoCoT instance)</text>
</g>
<!-- question&#45;&gt;strategy -->
<g id="edge1" class="edge">
<title>question&#45;&gt;strategy</title>
<path fill="none" stroke="black" d="M810.45,-390.24C820.06,-376.45 834.5,-356.82 849,-341.25 859.45,-330.02 871.92,-318.68 883.12,-309.09"/>
<polygon fill="black" stroke="black" points="885.61,-311.57 891.01,-302.46 881.11,-306.22 885.61,-311.57"/>
<text text-anchor="middle" x="895" y="-352.55" font-family="Helvetica,Arial,sans-serif" font-size="14.00">is main input to</text>
</g>
<!-- strategy_choice -->
<g id="node2" class="node">
<title>strategy_choice</title>
<path fill="lightyellow" stroke="grey" stroke-width="2" d="M1067.5,-427.25C1067.5,-427.25 892.5,-427.25 892.5,-427.25 886.5,-427.25 880.5,-421.25 880.5,-415.25 880.5,-415.25 880.5,-401.25 880.5,-401.25 880.5,-395.25 886.5,-389.25 892.5,-389.25 892.5,-389.25 1067.5,-389.25 1067.5,-389.25 1073.5,-389.25 1079.5,-395.25 1079.5,-401.25 1079.5,-401.25 1079.5,-415.25 1079.5,-415.25 1079.5,-421.25 1073.5,-427.25 1067.5,-427.25"/>
<text text-anchor="middle" x="980" y="-412.05" font-family="Helvetica,Arial,sans-serif" font-size="14.00">Strategy Choice</text>
<text text-anchor="middle" x="980" y="-397.05" font-family="Helvetica,Arial,sans-serif" font-size="14.00">(e.g., SC, LtM, GoT, AutoCoT)</text>
</g>
<!-- strategy_choice&#45;&gt;strategy -->
<g id="edge2" class="edge">
<title>strategy_choice&#45;&gt;strategy</title>
<path fill="none" stroke="black" d="M970.26,-389.1C959.25,-368.57 941.19,-334.93 928.51,-311.3"/>
<polygon fill="black" stroke="black" points="931.59,-309.63 923.78,-302.47 925.42,-312.94 931.59,-309.63"/>
<text text-anchor="middle" x="1028.5" y="-352.55" font-family="Helvetica,Arial,sans-serif" font-size="14.00">determines instance of</text>
</g>
<!-- llm_choice -->
<g id="node3" class="node">
<title>llm_choice</title>
<path fill="lightyellow" stroke="grey" stroke-width="2" d="M1469.5,-427.25C1469.5,-427.25 1332.5,-427.25 1332.5,-427.25 1326.5,-427.25 1320.5,-421.25 1320.5,-415.25 1320.5,-415.25 1320.5,-401.25 1320.5,-401.25 1320.5,-395.25 1326.5,-389.25 1332.5,-389.25 1332.5,-389.25 1469.5,-389.25 1469.5,-389.25 1475.5,-389.25 1481.5,-395.25 1481.5,-401.25 1481.5,-401.25 1481.5,-415.25 1481.5,-415.25 1481.5,-421.25 1475.5,-427.25 1469.5,-427.25"/>
<text text-anchor="middle" x="1401" y="-412.05" font-family="Helvetica,Arial,sans-serif" font-size="14.00">LLM Choice</text>
<text text-anchor="middle" x="1401" y="-397.05" font-family="Helvetica,Arial,sans-serif" font-size="14.00">(Provider, Model Name)</text>
</g>
<!-- llm_interface -->
<g id="node6" class="node">
<title>llm_interface</title>
<path fill="lightblue" stroke="grey" stroke-width="2" d="M1232.5,-61.12C1232.5,-61.12 1071.5,-61.12 1071.5,-61.12 1065.5,-61.12 1059.5,-55.12 1059.5,-49.12 1059.5,-49.12 1059.5,-35.12 1059.5,-35.12 1059.5,-29.12 1065.5,-23.12 1071.5,-23.12 1071.5,-23.12 1232.5,-23.12 1232.5,-23.12 1238.5,-23.12 1244.5,-29.12 1244.5,-35.12 1244.5,-35.12 1244.5,-49.12 1244.5,-49.12 1244.5,-55.12 1238.5,-61.12 1232.5,-61.12"/>
<text text-anchor="middle" x="1152" y="-45.92" font-family="Helvetica,Arial,sans-serif" font-size="14.00">LLM Interface</text>
<text text-anchor="middle" x="1152" y="-30.93" font-family="Helvetica,Arial,sans-serif" font-size="14.00">(BaseLLM: OpenAI/Ollama)</text>
</g>
<!-- llm_choice&#45;&gt;llm_interface -->
<g id="edge3" class="edge">
<title>llm_choice&#45;&gt;llm_interface</title>
<path fill="none" stroke="black" d="M1411.16,-389.1C1436.13,-341.81 1494.34,-212.97 1436,-133.25 1394.75,-76.88 1318.01,-54.91 1254.69,-46.72"/>
<polygon fill="black" stroke="black" points="1254.99,-43.23 1244.65,-45.52 1254.16,-50.18 1254.99,-43.23"/>
<text text-anchor="middle" x="1492.5" y="-227.55" font-family="Helvetica,Arial,sans-serif" font-size="14.00">configures</text>
</g>
<!-- training_data -->
<g id="node4" class="node">
<title>training_data</title>
<polygon fill="lightyellow" stroke="grey" stroke-width="2" points="1296.5,-427.25 1097.5,-427.25 1097.5,-389.25 1302.5,-389.25 1302.5,-421.25 1296.5,-427.25"/>
<polyline fill="none" stroke="grey" stroke-width="2" points="1296.5,-427.25 1296.5,-421.25 "/>
<polyline fill="none" stroke="grey" stroke-width="2" points="1302.5,-421.25 1296.5,-421.25 "/>
<text text-anchor="middle" x="1200" y="-412.05" font-family="Helvetica,Arial,sans-serif" font-size="14.00">Training Data</text>
<text text-anchor="middle" x="1200" y="-397.05" font-family="Helvetica,Arial,sans-serif" font-size="14.00">(Optional: Questions, Answers)</text>
</g>
<!-- training_data&#45;&gt;strategy -->
<g id="edge4" class="edge">
<title>training_data&#45;&gt;strategy</title>
<path fill="none" stroke="black" stroke-dasharray="5,2" d="M1177.15,-389.2C1157.79,-374.61 1128.82,-354.41 1101,-341.25 1069.44,-326.32 1033.06,-314.18 1000.82,-305.01"/>
<polygon fill="black" stroke="black" points="1001.52,-301.57 990.95,-302.26 999.64,-308.32 1001.52,-301.57"/>
<text text-anchor="middle" x="1229.5" y="-360.05" font-family="Helvetica,Arial,sans-serif" font-size="14.00">used by some for fit/train</text>
<text text-anchor="middle" x="1229.5" y="-345.05" font-family="Helvetica,Arial,sans-serif" font-size="14.00">(e.g., AutoCoT, CDWCoT)</text>
</g>
<!-- strategy&#45;&gt;llm_interface -->
<g id="edge5" class="edge">
<title>strategy&#45;&gt;llm_interface</title>
<path fill="none" stroke="black" d="M903.01,-264.24C894.39,-250.59 881.74,-231.63 869,-216.25 865.79,-212.38 862.92,-212.9 861,-208.25 848.24,-177.45 841.22,-160.08 861,-133.25 883.9,-102.18 975.27,-77.25 1049.6,-61.55"/>
<polygon fill="black" stroke="black" points="1050.42,-64.95 1059.5,-59.49 1049,-58.1 1050.42,-64.95"/>
<text text-anchor="middle" x="907.5" y="-155.55" font-family="Helvetica,Arial,sans-serif" font-size="14.00">makes calls via</text>
</g>
<!-- schemas -->
<g id="node7" class="node">
<title>schemas</title>
<polygon fill="lightgrey" stroke="grey" stroke-width="2" points="814.5,-178.25 619.5,-178.25 619.5,-174.25 615.5,-174.25 615.5,-170.25 619.5,-170.25 619.5,-148.25 615.5,-148.25 615.5,-144.25 619.5,-144.25 619.5,-140.25 814.5,-140.25 814.5,-178.25"/>
<polyline fill="none" stroke="grey" stroke-width="2" points="619.5,-174.25 623.5,-174.25 623.5,-170.25 619.5,-170.25 "/>
<polyline fill="none" stroke="grey" stroke-width="2" points="619.5,-148.25 623.5,-148.25 623.5,-144.25 619.5,-144.25 "/>
<text text-anchor="middle" x="717" y="-163.05" font-family="Helvetica,Arial,sans-serif" font-size="14.00">Pydantic Schemas</text>
<text text-anchor="middle" x="717" y="-148.05" font-family="Helvetica,Arial,sans-serif" font-size="14.00">(Structured Output Validation)</text>
</g>
<!-- strategy&#45;&gt;schemas -->
<g id="edge6" class="edge">
<title>strategy&#45;&gt;schemas</title>
<path fill="none" stroke="black" stroke-dasharray="5,2" d="M832.8,-277.56C785.74,-272.97 732.91,-263.94 718,-246.25 704.74,-230.53 705.46,-206.83 708.96,-188.29"/>
<polygon fill="black" stroke="black" points="712.42,-188.86 711.18,-178.33 705.58,-187.33 712.42,-188.86"/>
<text text-anchor="middle" x="793.5" y="-235.05" font-family="Helvetica,Arial,sans-serif" font-size="14.00">uses for JSON modes</text>
<text text-anchor="middle" x="793.5" y="-220.05" font-family="Helvetica,Arial,sans-serif" font-size="14.00">(LtM, ToT, GoT, SC, etc.)</text>
</g>
<!-- embedding -->
<g id="node8" class="node">
<title>embedding</title>
<polygon fill="lightblue" stroke="grey" stroke-width="2" points="601.5,-178.25 474.5,-178.25 474.5,-174.25 470.5,-174.25 470.5,-170.25 474.5,-170.25 474.5,-148.25 470.5,-148.25 470.5,-144.25 474.5,-144.25 474.5,-140.25 601.5,-140.25 601.5,-178.25"/>
<polyline fill="none" stroke="grey" stroke-width="2" points="474.5,-174.25 478.5,-174.25 478.5,-170.25 474.5,-170.25 "/>
<polyline fill="none" stroke="grey" stroke-width="2" points="474.5,-148.25 478.5,-148.25 478.5,-144.25 474.5,-144.25 "/>
<text text-anchor="middle" x="538" y="-163.05" font-family="Helvetica,Arial,sans-serif" font-size="14.00">Embedding Model</text>
<text text-anchor="middle" x="538" y="-148.05" font-family="Helvetica,Arial,sans-serif" font-size="14.00">(Optional Usage)</text>
</g>
<!-- strategy&#45;&gt;embedding -->
<g id="edge7" class="edge">
<title>strategy&#45;&gt;embedding</title>
<path fill="none" stroke="black" stroke-dasharray="5,2" d="M832.86,-279.88C729.74,-276.04 562.68,-266.71 543,-246.25 528.56,-231.25 528.35,-207.13 531.16,-188.24"/>
<polygon fill="black" stroke="black" points="534.61,-188.85 532.96,-178.38 527.72,-187.59 534.61,-188.85"/>
<text text-anchor="middle" x="623" y="-235.05" font-family="Helvetica,Arial,sans-serif" font-size="14.00">uses sometimes</text>
<text text-anchor="middle" x="623" y="-220.05" font-family="Helvetica,Arial,sans-serif" font-size="14.00">(AutoCoT, CDWCoT, GoT)</text>
</g>
<!-- clustering -->
<g id="node9" class="node">
<title>clustering</title>
<polygon fill="lightblue" stroke="grey" stroke-width="2" points="1101.5,-178.25 962.5,-178.25 962.5,-174.25 958.5,-174.25 958.5,-170.25 962.5,-170.25 962.5,-148.25 958.5,-148.25 958.5,-144.25 962.5,-144.25 962.5,-140.25 1101.5,-140.25 1101.5,-178.25"/>
<polyline fill="none" stroke="grey" stroke-width="2" points="962.5,-174.25 966.5,-174.25 966.5,-170.25 962.5,-170.25 "/>
<polyline fill="none" stroke="grey" stroke-width="2" points="962.5,-148.25 966.5,-148.25 966.5,-144.25 962.5,-144.25 "/>
<text text-anchor="middle" x="1032" y="-163.05" font-family="Helvetica,Arial,sans-serif" font-size="14.00">Clustering Algorithm</text>
<text text-anchor="middle" x="1032" y="-148.05" font-family="Helvetica,Arial,sans-serif" font-size="14.00">(Optional Usage)</text>
</g>
<!-- strategy&#45;&gt;clustering -->
<g id="edge8" class="edge">
<title>strategy&#45;&gt;clustering</title>
<path fill="none" stroke="black" stroke-dasharray="5,2" d="M931.41,-264.25C951.54,-243.43 984.82,-209.03 1007.54,-185.54"/>
<polygon fill="black" stroke="black" points="1010.08,-187.95 1014.52,-178.33 1005.05,-183.08 1010.08,-187.95"/>
<text text-anchor="middle" x="1039.5" y="-235.05" font-family="Helvetica,Arial,sans-serif" font-size="14.00">uses sometimes</text>
<text text-anchor="middle" x="1039.5" y="-220.05" font-family="Helvetica,Arial,sans-serif" font-size="14.00">(AutoCoT, CDWCoT)</text>
</g>
<!-- extraction -->
<g id="node10" class="node">
<title>extraction</title>
<polygon fill="lightblue" stroke="grey" stroke-width="2" points="1280.5,-178.25 1119.5,-178.25 1119.5,-174.25 1115.5,-174.25 1115.5,-170.25 1119.5,-170.25 1119.5,-148.25 1115.5,-148.25 1115.5,-144.25 1119.5,-144.25 1119.5,-140.25 1280.5,-140.25 1280.5,-178.25"/>
<polyline fill="none" stroke="grey" stroke-width="2" points="1119.5,-174.25 1123.5,-174.25 1123.5,-170.25 1119.5,-170.25 "/>
<polyline fill="none" stroke="grey" stroke-width="2" points="1119.5,-148.25 1123.5,-148.25 1123.5,-144.25 1119.5,-144.25 "/>
<text text-anchor="middle" x="1200" y="-163.05" font-family="Helvetica,Arial,sans-serif" font-size="14.00">Answer Extraction Logic</text>
<text text-anchor="middle" x="1200" y="-148.05" font-family="Helvetica,Arial,sans-serif" font-size="14.00">(Heuristic / LLM&#45;based)</text>
</g>
<!-- strategy&#45;&gt;extraction -->
<g id="edge9" class="edge">
<title>strategy&#45;&gt;extraction</title>
<path fill="none" stroke="black" stroke-dasharray="5,2" d="M995.17,-277.28C1030.94,-272.57 1072.58,-263.53 1107,-246.25 1135.67,-231.85 1161.87,-205.93 1179.1,-186.3"/>
<polygon fill="black" stroke="black" points="1181.86,-188.46 1185.7,-178.59 1176.54,-183.91 1181.86,-188.46"/>
<text text-anchor="middle" x="1199" y="-235.05" font-family="Helvetica,Arial,sans-serif" font-size="14.00">uses sometimes</text>
<text text-anchor="middle" x="1199" y="-220.05" font-family="Helvetica,Arial,sans-serif" font-size="14.00">(SC, LtM, GoT)</text>
</g>
<!-- final_answer -->
<g id="node13" class="node">
<title>final_answer</title>
<path fill="lightgreen" stroke="grey" stroke-width="2" d="M438,-177.25C438,-177.25 318,-177.25 318,-177.25 312,-177.25 306,-171.25 306,-165.25 306,-165.25 306,-153.25 306,-153.25 306,-147.25 312,-141.25 318,-141.25 318,-141.25 438,-141.25 438,-141.25 444,-141.25 450,-147.25 450,-153.25 450,-153.25 450,-165.25 450,-165.25 450,-171.25 444,-177.25 438,-177.25"/>
<text text-anchor="middle" x="378" y="-155.55" font-family="Helvetica,Arial,sans-serif" font-size="14.00">Final Answer / Result</text>
</g>
<!-- strategy&#45;&gt;final_answer -->
<g id="edge16" class="edge">
<title>strategy&#45;&gt;final_answer</title>
<path fill="none" stroke="black" d="M832.99,-282.01C723.02,-280.62 532.95,-274.08 470,-246.25 439.95,-232.96 413.47,-205.64 396.73,-185.33"/>
<polygon fill="black" stroke="black" points="399.36,-183.02 390.38,-177.4 393.9,-187.39 399.36,-183.02"/>
<text text-anchor="middle" x="498" y="-227.55" font-family="Helvetica,Arial,sans-serif" font-size="14.00">produces</text>
</g>
<!-- llm_interface&#45;&gt;strategy -->
<g id="edge12" class="edge">
<title>llm_interface&#45;&gt;strategy</title>
<path fill="none" stroke="black" d="M1244.61,-59.82C1270.75,-69.27 1296.32,-84.08 1312,-107.25 1337.74,-145.3 1312.48,-168.18 1290,-208.25 1278.47,-228.81 1274.2,-235.95 1253,-246.25 1210.73,-266.79 1090.47,-275.7 1005.23,-279.5"/>
<polygon fill="black" stroke="black" points="1004.86,-276.02 995.02,-279.94 1005.16,-283.01 1004.86,-276.02"/>
<text text-anchor="middle" x="1377" y="-155.55" font-family="Helvetica,Arial,sans-serif" font-size="14.00">provides results to</text>
</g>
<!-- llm_backend -->
<g id="node11" class="node">
<title>llm_backend</title>
<path fill="lightpink" stroke="grey" stroke-width="2" d="M437.5,-61.12C437.5,-61.12 264.5,-61.12 264.5,-61.12 258.5,-61.12 252.5,-55.12 252.5,-49.12 252.5,-49.12 252.5,-35.12 252.5,-35.12 252.5,-29.12 258.5,-23.12 264.5,-23.12 264.5,-23.12 437.5,-23.12 437.5,-23.12 443.5,-23.12 449.5,-29.12 449.5,-35.12 449.5,-35.12 449.5,-49.12 449.5,-49.12 449.5,-55.12 443.5,-61.12 437.5,-61.12"/>
<text text-anchor="middle" x="351" y="-45.92" font-family="Helvetica,Arial,sans-serif" font-size="14.00">LLM Backend</text>
<text text-anchor="middle" x="351" y="-30.93" font-family="Helvetica,Arial,sans-serif" font-size="14.00">(OpenAI API / Ollama Server)</text>
</g>
<!-- llm_interface&#45;&gt;llm_backend -->
<g id="edge10" class="edge">
<title>llm_interface&#45;&gt;llm_backend</title>
<path fill="none" stroke="black" d="M1059.29,-42.12C910.36,-42.12 618.48,-42.12 459.87,-42.12"/>
<polygon fill="black" stroke="black" points="459.62,-38.63 449.62,-42.12 459.62,-45.63 459.62,-38.63"/>
<text text-anchor="middle" x="754.5" y="-48.92" font-family="Helvetica,Arial,sans-serif" font-size="14.00">communicates with</text>
</g>
<!-- embedding_backend -->
<g id="node12" class="node">
<title>embedding_backend</title>
<path fill="lightpink" stroke="grey" stroke-width="2" d="M234,-63.6C234,-66.24 185.14,-68.38 125,-68.38 64.86,-68.38 16,-66.24 16,-63.6 16,-63.6 16,-20.65 16,-20.65 16,-18.01 64.86,-15.87 125,-15.87 185.14,-15.87 234,-18.01 234,-20.65 234,-20.65 234,-63.6 234,-63.6"/>
<path fill="none" stroke="grey" stroke-width="2" d="M234,-63.6C234,-60.97 185.14,-58.83 125,-58.83 64.86,-58.83 16,-60.97 16,-63.6"/>
<text text-anchor="middle" x="125" y="-45.92" font-family="Helvetica,Arial,sans-serif" font-size="14.00">Embedding Backend</text>
<text text-anchor="middle" x="125" y="-30.93" font-family="Helvetica,Arial,sans-serif" font-size="14.00">(e.g., Sentence Transformers Lib)</text>
</g>
<!-- embedding&#45;&gt;embedding_backend -->
<g id="edge13" class="edge">
<title>embedding&#45;&gt;embedding_backend</title>
<path fill="none" stroke="black" d="M488.13,-140.2C479.5,-137.56 470.55,-135.1 462,-133.25 417.87,-123.7 405.64,-129.02 361,-122.25 308.17,-114.24 293.75,-115.97 243,-99.25 221.8,-92.26 199.46,-82.36 179.99,-72.8"/>
<polygon fill="black" stroke="black" points="181.48,-69.64 170.97,-68.3 178.35,-75.9 181.48,-69.64"/>
<text text-anchor="middle" x="399" y="-111.05" font-family="Helvetica,Arial,sans-serif" font-size="14.00">wraps / uses</text>
</g>
<!-- extraction&#45;&gt;llm_interface -->
<g id="edge15" class="edge">
<title>extraction&#45;&gt;llm_interface</title>
<path fill="none" stroke="black" stroke-dasharray="1,5" d="M1168.16,-140.24C1162.07,-135.24 1156.5,-129.23 1153,-122.25 1145.19,-106.69 1144.87,-87.14 1146.54,-71.36"/>
<polygon fill="black" stroke="black" points="1150.05,-71.53 1147.94,-61.14 1143.11,-70.57 1150.05,-71.53"/>
<text text-anchor="middle" x="1232.5" y="-111.05" font-family="Helvetica,Arial,sans-serif" font-size="14.00">can call LLM for extraction</text>
</g>
<!-- llm_backend&#45;&gt;llm_interface -->
<g id="edge11" class="edge">
<title>llm_backend&#45;&gt;llm_interface</title>
<path fill="none" stroke="black" d="M449.62,-42.12C602.24,-42.12 894.2,-42.12 1049.28,-42.12"/>
<polygon fill="black" stroke="black" points="1049.29,-45.63 1059.29,-42.12 1049.29,-38.63 1049.29,-45.63"/>
<text text-anchor="middle" x="754.5" y="-48.92" font-family="Helvetica,Arial,sans-serif" font-size="14.00">returns generation to</text>
</g>
<!-- embedding_backend&#45;&gt;embedding -->
<g id="edge14" class="edge">
<title>embedding_backend&#45;&gt;embedding</title>
<path fill="none" stroke="black" d="M167.15,-68.28C189,-79.97 216.57,-92.71 243,-99.25 326.77,-119.98 353.48,-85.53 437,-107.25 459.55,-113.11 482.88,-124.49 501.43,-135.01"/>
<polygon fill="black" stroke="black" points="499.73,-138.07 510.13,-140.08 503.25,-132.02 499.73,-138.07"/>
<text text-anchor="middle" x="539" y="-111.05" font-family="Helvetica,Arial,sans-serif" font-size="14.00">provides embeddings</text>
</g>
</g>
</svg>
