<?xml version="1.0" encoding="UTF-8" standalone="no"?>
<!DOCTYPE svg PUBLIC "-//W3C//DTD SVG 1.1//EN"
 "http://www.w3.org/Graphics/SVG/1.1/DTD/svg11.dtd">
<!-- Generated by graphviz version 2.43.0 (0)
 -->
<!-- Title: SimplifiedCogitatorWorkflow Pages: 1 -->
<svg width="767pt" height="397pt"
 viewBox="0.00 0.00 767.00 397.00" xmlns="http://www.w3.org/2000/svg" xmlns:xlink="http://www.w3.org/1999/xlink">
<g id="graph0" class="graph" transform="scale(1 1) rotate(0) translate(4 393)">
<title>SimplifiedCogitatorWorkflow</title>
<polygon fill="white" stroke="transparent" points="-4,4 -4,-393 763,-393 763,4 -4,4"/>
<g id="clust1" class="cluster">
<title>cluster_input</title>
<polygon fill="none" stroke="lightgrey" stroke-dasharray="5,2" points="8,-128 8,-311 246,-311 246,-128 8,-128"/>
<text text-anchor="middle" x="127" y="-295.8" font-family="Helvetica,Arial,sans-serif" font-size="14.00">Inputs</text>
</g>
<g id="clust2" class="cluster">
<title>cluster_core</title>
<polygon fill="none" stroke="lightgrey" stroke-dasharray="5,2" points="275,-146 275,-381 510,-381 510,-146 275,-146"/>
<text text-anchor="middle" x="392.5" y="-365.8" font-family="Helvetica,Arial,sans-serif" font-size="14.00">Cogitator</text>
</g>
<g id="clust3" class="cluster">
<title>cluster_external</title>
<polygon fill="none" stroke="lightgrey" stroke-dasharray="5,2" points="283,-8 283,-105 502,-105 502,-8 283,-8"/>
<text text-anchor="middle" x="392.5" y="-89.8" font-family="Helvetica,Arial,sans-serif" font-size="14.00">LLM Service</text>
</g>
<g id="clust4" class="cluster">
<title>cluster_output</title>
<polygon fill="none" stroke="lightgrey" stroke-dasharray="5,2" points="605,-216 605,-311 751,-311 751,-216 605,-216"/>
<text text-anchor="middle" x="678" y="-295.8" font-family="Helvetica,Arial,sans-serif" font-size="14.00">Output</text>
</g>
<!-- question -->
<g id="node1" class="node">
<title>question</title>
<path fill="oldlace" stroke="grey" d="M186,-270C186,-270 68,-270 68,-270 62,-270 56,-264 56,-258 56,-258 56,-246 56,-246 56,-240 62,-234 68,-234 68,-234 186,-234 186,-234 192,-234 198,-240 198,-246 198,-246 198,-258 198,-258 198,-264 192,-270 186,-270"/>
<text text-anchor="middle" x="127" y="-248.3" font-family="Helvetica,Arial,sans-serif" font-size="14.00">1. Question / Prompt</text>
</g>
<!-- strategy -->
<g id="node3" class="node">
<title>strategy</title>
<path fill="lightblue" stroke="grey" d="M480,-340C480,-340 305,-340 305,-340 299,-340 293,-334 293,-328 293,-328 293,-176 293,-176 293,-170 299,-164 305,-164 305,-164 480,-164 480,-164 486,-164 492,-170 492,-176 492,-176 492,-328 492,-328 492,-334 486,-340 480,-340"/>
<text text-anchor="start" x="313.5" y="-322.8" font-family="Helvetica,Arial,sans-serif" font-weight="bold" font-size="14.00">3. Selected CoT Strategy</text>
<text text-anchor="start" x="304.5" y="-300.8" font-family="Helvetica,Arial,sans-serif" font-size="14.00">Orchestrates steps:</text>
<text text-anchor="start" x="304.5" y="-279.8" font-family="Helvetica,Arial,sans-serif" font-size="14.00">&#45; Prompt Formatting</text>
<text text-anchor="start" x="304.5" y="-258.8" font-family="Helvetica,Arial,sans-serif" font-size="14.00">&#45; LLM Calls</text>
<text text-anchor="start" x="304.5" y="-237.8" font-family="Helvetica,Arial,sans-serif" font-size="14.00">&#45; Intermediate Processing</text>
<text text-anchor="start" x="304.5" y="-216.8" font-family="Helvetica,Arial,sans-serif" font-size="14.00"> &#160;(Decomposition, Expansion,</text>
<text text-anchor="start" x="304.5" y="-195.8" font-family="Helvetica,Arial,sans-serif" font-size="14.00"> &#160;&#160;Evaluation, Extraction,</text>
<text text-anchor="start" x="304.5" y="-174.8" font-family="Helvetica,Arial,sans-serif" font-size="14.00"> &#160;&#160;Embedding, Clustering...)</text>
</g>
<!-- question&#45;&gt;strategy -->
<g id="edge1" class="edge">
<title>question&#45;&gt;strategy</title>
<path fill="none" stroke="black" d="M198.27,-252C218.82,-252 241.94,-252 264.85,-252"/>
<polygon fill="black" stroke="black" points="265,-255.5 275,-252 265,-248.5 265,-255.5"/>
</g>
<!-- config -->
<g id="node2" class="node">
<title>config</title>
<path fill="oldlace" stroke="grey" d="M216,-184C216,-184 38,-184 38,-184 32,-184 26,-178 26,-172 26,-172 26,-158 26,-158 26,-152 32,-146 38,-146 38,-146 216,-146 216,-146 222,-146 228,-152 228,-158 228,-158 228,-172 228,-172 228,-178 222,-184 216,-184"/>
<text text-anchor="middle" x="127" y="-168.8" font-family="Helvetica,Arial,sans-serif" font-size="14.00">2. Configuration</text>
<text text-anchor="middle" x="127" y="-153.8" font-family="Helvetica,Arial,sans-serif" font-size="14.00">(Strategy Choice, LLM Choice)</text>
</g>
<!-- config&#45;&gt;strategy -->
<g id="edge2" class="edge">
<title>config&#45;&gt;strategy</title>
<path fill="none" stroke="black" d="M185.83,-184.09C209.3,-191.84 237.41,-201.12 265.2,-210.3"/>
<polygon fill="black" stroke="black" points="264.41,-213.72 275,-213.54 266.61,-207.08 264.41,-213.72"/>
</g>
<!-- llm -->
<g id="node4" class="node">
<title>llm</title>
<path fill="oldlace" stroke="grey" d="M472,-64C472,-64 313,-64 313,-64 307,-64 301,-58 301,-52 301,-52 301,-38 301,-38 301,-32 307,-26 313,-26 313,-26 472,-26 472,-26 478,-26 484,-32 484,-38 484,-38 484,-52 484,-52 484,-58 478,-64 472,-64"/>
<text text-anchor="middle" x="392.5" y="-48.8" font-family="Helvetica,Arial,sans-serif" font-size="14.00">4. Model Provider</text>
<text text-anchor="middle" x="392.5" y="-33.8" font-family="Helvetica,Arial,sans-serif" font-size="14.00">(e.g., OpenAI API / Ollama)</text>
</g>
<!-- config&#45;&gt;llm -->
<g id="edge3" class="edge">
<title>config&#45;&gt;llm</title>
<path fill="none" stroke="black" d="M169.75,-145.99C197.88,-133.18 236.48,-115.6 273.61,-98.69"/>
<polygon fill="black" stroke="black" points="275.35,-101.74 283,-94.41 272.45,-95.37 275.35,-101.74"/>
</g>
<!-- strategy&#45;&gt;llm -->
<g id="edge4" class="edge">
<title>strategy&#45;&gt;llm</title>
<path fill="none" stroke="black" d="M392.5,-163.88C392.5,-133.97 392.5,-104.06 392.5,-74.15"/>
<polygon fill="black" stroke="black" points="396,-74 392.5,-64 389,-74 396,-74"/>
</g>
<!-- final_answer -->
<g id="node5" class="node">
<title>final_answer</title>
<path fill="oldlace" stroke="grey" d="M721,-270C721,-270 635,-270 635,-270 629,-270 623,-264 623,-258 623,-258 623,-246 623,-246 623,-240 629,-234 635,-234 635,-234 721,-234 721,-234 727,-234 733,-240 733,-246 733,-246 733,-258 733,-258 733,-264 727,-270 721,-270"/>
<text text-anchor="middle" x="678" y="-248.3" font-family="Helvetica,Arial,sans-serif" font-size="14.00">5. Final Answer</text>
</g>
<!-- strategy&#45;&gt;final_answer -->
<g id="edge6" class="edge">
<title>strategy&#45;&gt;final_answer</title>
<path fill="none" stroke="black" d="M510,-252C538.45,-252 568.31,-252 594.78,-252"/>
<polygon fill="black" stroke="black" points="595,-255.5 605,-252 595,-248.5 595,-255.5"/>
</g>
<!-- llm&#45;&gt;strategy -->
<g id="edge5" class="edge">
<title>llm&#45;&gt;strategy</title>
<path fill="none" stroke="black" d="M392.5,-64C392.5,-93.91 392.5,-123.82 392.5,-153.73"/>
<polygon fill="black" stroke="black" points="389,-153.88 392.5,-163.88 396,-153.88 389,-153.88"/>
</g>
</g>
</svg>
